<svg width="16" height="16" viewBox="0 0 16 16" fill="none" xmlns="http://www.w3.org/2000/svg">
<path d="M7.69258 0C6.68237 0 5.68206 0.198974 4.74875 0.585562C3.81545 0.972151 2.96742 1.53878 2.2531 2.2531C0.810465 3.69574 0 5.65238 0 7.69257C0 11.0927 2.20777 13.9774 5.26172 15.0005C5.64635 15.0621 5.76943 14.8236 5.76943 14.6159V13.3158C3.63859 13.7774 3.18473 12.285 3.18473 12.285C2.83087 11.3927 2.33085 11.1542 2.33085 11.1542C1.63083 10.6773 2.3847 10.6927 2.3847 10.6927C3.15396 10.7465 3.56166 11.485 3.56166 11.485C4.23092 12.6543 5.36172 12.3081 5.8002 12.1235C5.86943 11.6235 6.06944 11.285 6.28483 11.0927C4.57708 10.9004 2.78471 10.2388 2.78471 7.30795C2.78471 6.45407 3.07703 5.76943 3.57705 5.22326C3.50012 5.03094 3.23088 4.23092 3.65397 3.19242C3.65397 3.19242 4.30015 2.98472 5.76943 3.97706C6.37715 3.80782 7.03871 3.72321 7.69258 3.72321C8.34644 3.72321 9.00801 3.80782 9.61572 3.97706C11.085 2.98472 11.7312 3.19242 11.7312 3.19242C12.1543 4.23092 11.885 5.03094 11.8081 5.22326C12.3081 5.76943 12.6004 6.45407 12.6004 7.30795C12.6004 10.2465 10.8004 10.8927 9.08493 11.085C9.36187 11.3235 9.61572 11.7927 9.61572 12.5081V14.6159C9.61572 14.8236 9.7388 15.0698 10.1311 15.0005C13.1851 13.9697 15.3852 11.0927 15.3852 7.69257C15.3852 6.68237 15.1862 5.68206 14.7996 4.74875C14.413 3.81545 13.8464 2.96742 13.132 2.2531C12.4177 1.53878 11.5697 0.972151 10.6364 0.585562C9.70309 0.198974 8.70278 0 7.69258 0Z" fill="white"/>
</svg>
