<svg width="16" height="15" viewBox="0 0 16 15" fill="none" xmlns="http://www.w3.org/2000/svg">
<path d="M7.93342 10.4754C8.72086 10.4754 9.47606 10.1625 10.0329 9.60574C10.5897 9.04893 10.9025 8.29374 10.9025 7.5063C10.9025 6.71885 10.5897 5.96366 10.0329 5.40685C9.47606 4.85004 8.72086 4.53723 7.93342 4.53723C7.14597 4.53723 6.39078 4.85004 5.83397 5.40685C5.27717 5.96366 4.96436 6.71885 4.96436 7.5063C4.96436 8.29374 5.27717 9.04893 5.83397 9.60574C6.39078 10.1625 7.14597 10.4754 7.93342 10.4754Z" stroke="white" stroke-width="1.1134" stroke-linecap="round" stroke-linejoin="round"/>
<path d="M1.25293 10.4753V4.53714C1.25293 3.55283 1.64394 2.60884 2.33995 1.91283C3.03596 1.21682 3.97995 0.825806 4.96426 0.825806H10.9024C11.8867 0.825806 12.8307 1.21682 13.5267 1.91283C14.2227 2.60884 14.6137 3.55283 14.6137 4.53714V10.4753C14.6137 11.4596 14.2227 12.4036 13.5267 13.0996C12.8307 13.7956 11.8867 14.1866 10.9024 14.1866H4.96426C3.97995 14.1866 3.03596 13.7956 2.33995 13.0996C1.64394 12.4036 1.25293 11.4596 1.25293 10.4753Z" stroke="white" stroke-width="1.1134"/>
<path d="M12.0159 3.43295L12.0249 3.42297" stroke="white" stroke-width="1.1134" stroke-linecap="round" stroke-linejoin="round"/>
</svg>
