<svg width="16" height="15" viewBox="0 0 16 15" fill="none" xmlns="http://www.w3.org/2000/svg">
<path d="M13.4374 0.218506C13.8669 0.218506 14.2788 0.38913 14.5825 0.692843C14.8862 0.996556 15.0569 1.40848 15.0569 1.838V13.1744C15.0569 13.6039 14.8862 14.0159 14.5825 14.3196C14.2788 14.6233 13.8669 14.7939 13.4374 14.7939H2.10093C1.67142 14.7939 1.2595 14.6233 0.955783 14.3196C0.65207 14.0159 0.481445 13.6039 0.481445 13.1744V1.838C0.481445 1.40848 0.65207 0.996556 0.955783 0.692843C1.2595 0.38913 1.67142 0.218506 2.10093 0.218506H13.4374ZM13.0325 12.7696V8.4779C13.0325 7.77779 12.7544 7.10636 12.2593 6.6113C11.7643 6.11625 11.0928 5.83813 10.3927 5.83813C9.70444 5.83813 8.90279 6.2592 8.51411 6.8908V5.99199H6.25493V12.7696H8.51411V8.77751C8.51411 8.154 9.01616 7.64387 9.63966 7.64387C9.94032 7.64387 10.2287 7.7633 10.4413 7.9759C10.6539 8.1885 10.7733 8.47685 10.7733 8.77751V12.7696H13.0325ZM3.62326 4.72069C3.98405 4.72069 4.33006 4.57736 4.58518 4.32224C4.8403 4.06712 4.98363 3.72111 4.98363 3.36032C4.98363 2.60725 4.37632 1.99185 3.62326 1.99185C3.26031 1.99185 2.91224 2.13602 2.6556 2.39266C2.39896 2.6493 2.25479 2.99738 2.25479 3.36032C2.25479 4.11338 2.87019 4.72069 3.62326 4.72069ZM4.7488 12.7696V5.99199H2.50581V12.7696H4.7488Z" fill="white"/>
</svg>
