<svg width="132" height="41" viewBox="0 0 132 41" fill="none" xmlns="http://www.w3.org/2000/svg">
<path d="M44.28 8.40752V24H40.4818V8.40752H44.28ZM50.8307 13.3607C51.1861 12.7832 51.6969 12.3167 52.3633 11.9614C53.0296 11.606 53.7922 11.4283 54.6511 11.4283C55.6728 11.4283 56.5983 11.6874 57.4275 12.2057C58.2567 12.724 58.9083 13.4643 59.3821 14.4268C59.8708 15.3893 60.1151 16.5073 60.1151 17.7808C60.1151 19.0542 59.8708 20.1796 59.3821 21.1569C58.9083 22.1194 58.2567 22.8672 57.4275 23.4003C56.5983 23.9186 55.6728 24.1777 54.6511 24.1777C53.7774 24.1777 53.0148 24.0074 52.3633 23.6668C51.7117 23.3114 51.2009 22.845 50.8307 22.2675V24H47.0325V7.56348H50.8307V13.3607ZM56.2503 17.7808C56.2503 16.8331 55.9837 16.0927 55.4507 15.5596C54.9324 15.0117 54.2883 14.7378 53.5183 14.7378C52.7631 14.7378 52.1189 15.0117 51.5859 15.5596C51.0676 16.1075 50.8085 16.8553 50.8085 17.803C50.8085 18.7507 51.0676 19.4985 51.5859 20.0464C52.1189 20.5942 52.7631 20.8682 53.5183 20.8682C54.2735 20.8682 54.9176 20.5942 55.4507 20.0464C55.9837 19.4837 56.2503 18.7285 56.2503 17.7808ZM65.9059 13.6716C66.3501 12.9905 66.9054 12.4574 67.5717 12.0724C68.2381 11.6726 68.9785 11.4727 69.7929 11.4727V15.493H68.7489C67.8013 15.493 67.0905 15.7003 66.6166 16.1149C66.1428 16.5147 65.9059 17.2255 65.9059 18.2472V24H62.1077V11.606H65.9059V13.6716ZM70.8531 17.7808C70.8531 16.5073 71.0901 15.3893 71.5639 14.4268C72.0526 13.4643 72.7115 12.724 73.5407 12.2057C74.37 11.6874 75.2954 11.4283 76.3172 11.4283C77.1908 11.4283 77.9534 11.606 78.605 11.9614C79.2713 12.3167 79.7822 12.7832 80.1375 13.3607V11.606H83.9357V24H80.1375V22.2453C79.7674 22.8228 79.2491 23.2892 78.5827 23.6446C77.9312 24 77.1686 24.1777 76.295 24.1777C75.288 24.1777 74.37 23.9186 73.5407 23.4003C72.7115 22.8672 72.0526 22.1194 71.5639 21.1569C71.0901 20.1796 70.8531 19.0542 70.8531 17.7808ZM80.1375 17.803C80.1375 16.8553 79.871 16.1075 79.3379 15.5596C78.8197 15.0117 78.1829 14.7378 77.4277 14.7378C76.6726 14.7378 76.0284 15.0117 75.4953 15.5596C74.9771 16.0927 74.7179 16.8331 74.7179 17.7808C74.7179 18.7285 74.9771 19.4837 75.4953 20.0464C76.0284 20.5942 76.6726 20.8682 77.4277 20.8682C78.1829 20.8682 78.8197 20.5942 79.3379 20.0464C79.871 19.4985 80.1375 18.7507 80.1375 17.803ZM94.3021 11.4727C95.7236 11.4727 96.8638 11.9466 97.7226 12.8942C98.5815 13.8271 99.0109 15.1154 99.0109 16.759V24H95.235V17.2699C95.235 16.4407 95.0202 15.7965 94.5908 15.3375C94.1614 14.8785 93.5839 14.649 92.8583 14.649C92.1327 14.649 91.5552 14.8785 91.1258 15.3375C90.6964 15.7965 90.4817 16.4407 90.4817 17.2699V24H86.6835V7.56348H90.4817V13.2718C90.8667 12.724 91.3924 12.2871 92.0587 11.9614C92.7251 11.6356 93.4728 11.4727 94.3021 11.4727ZM103.56 10.3177C102.894 10.3177 102.346 10.1252 101.917 9.74021C101.502 9.3404 101.295 8.85175 101.295 8.27425C101.295 7.68195 101.502 7.19329 101.917 6.80829C102.346 6.40848 102.894 6.20858 103.56 6.20858C104.212 6.20858 104.745 6.40848 105.16 6.80829C105.589 7.19329 105.804 7.68195 105.804 8.27425C105.804 8.85175 105.589 9.3404 105.16 9.74021C104.745 10.1252 104.212 10.3177 103.56 10.3177ZM105.448 11.606V24H101.65V11.606H105.448ZM124.016 11.4727C125.556 11.4727 126.777 11.9392 127.68 12.872C128.598 13.8049 129.058 15.1006 129.058 16.759V24H125.282V17.2699C125.282 16.4703 125.067 15.8558 124.637 15.4264C124.223 14.9821 123.645 14.76 122.905 14.76C122.165 14.76 121.58 14.9821 121.15 15.4264C120.736 15.8558 120.528 16.4703 120.528 17.2699V24H116.752V17.2699C116.752 16.4703 116.538 15.8558 116.108 15.4264C115.694 14.9821 115.116 14.76 114.376 14.76C113.635 14.76 113.05 14.9821 112.621 15.4264C112.206 15.8558 111.999 16.4703 111.999 17.2699V24H108.201V11.606H111.999V13.1608C112.384 12.6425 112.888 12.2353 113.509 11.9392C114.131 11.6282 114.835 11.4727 115.62 11.4727C116.552 11.4727 117.382 11.6726 118.107 12.0724C118.848 12.4722 119.425 13.0423 119.84 13.7827C120.269 13.1016 120.854 12.5463 121.594 12.1168C122.335 11.6874 123.142 11.4727 124.016 11.4727Z" fill="white"/>
<path d="M80.19 29.7196V36.0698H79.355V31.3347L77.2444 36.0698H76.6571L74.5373 31.3255V36.0698H73.7022V29.7196H74.6015L76.9507 34.9686L79.2999 29.7196H80.19ZM87.9473 30.3528V32.491H90.2781V33.1792H87.9473V35.3816H90.5534V36.0698H87.1122V29.6646H90.5534V30.3528H87.9473ZM103.811 29.7196V36.0698H102.976V31.3347L100.865 36.0698H100.278L98.158 31.3255V36.0698H97.3229V29.7196H98.2223L100.571 34.9686L102.921 29.7196H103.811ZM113.633 36.1341C113.039 36.1341 112.498 35.9964 112.008 35.7211C111.519 35.4397 111.131 35.0512 110.843 34.5557C110.562 34.054 110.421 33.4912 110.421 32.8672C110.421 32.2432 110.562 31.6834 110.843 31.1879C111.131 30.6862 111.519 30.2978 112.008 30.0225C112.498 29.741 113.039 29.6003 113.633 29.6003C114.232 29.6003 114.777 29.741 115.266 30.0225C115.756 30.2978 116.141 30.6832 116.422 31.1787C116.704 31.6742 116.845 32.2371 116.845 32.8672C116.845 33.4973 116.704 34.0602 116.422 34.5557C116.141 35.0512 115.756 35.4397 115.266 35.7211C114.777 35.9964 114.232 36.1341 113.633 36.1341ZM113.633 35.4091C114.079 35.4091 114.48 35.3051 114.835 35.0971C115.196 34.8891 115.477 34.5924 115.679 34.207C115.887 33.8216 115.991 33.375 115.991 32.8672C115.991 32.3533 115.887 31.9067 115.679 31.5274C115.477 31.142 115.199 30.8453 114.844 30.6373C114.489 30.4293 114.085 30.3253 113.633 30.3253C113.18 30.3253 112.776 30.4293 112.421 30.6373C112.067 30.8453 111.785 31.142 111.577 31.5274C111.375 31.9067 111.274 32.3533 111.274 32.8672C111.274 33.375 111.375 33.8216 111.577 34.207C111.785 34.5924 112.067 34.8891 112.421 35.0971C112.782 35.3051 113.186 35.4091 113.633 35.4091ZM128.482 36.0698H127.647L124.288 30.9768V36.0698H123.453V29.6646H124.288L127.647 34.7484V29.6646H128.482V36.0698Z" fill="white"/>
<path d="M0 6.51746H23.7302" stroke="white" stroke-width="2.71203"/>
<path d="M0 32.6558H23.7302" stroke="white" stroke-width="2.71203"/>
<path d="M14.5348 6.51746L4.74609 19.2827L14.5348 32.9597" stroke="white" stroke-width="2.71203"/>
</svg>
