<svg width="130" height="56" viewBox="0 0 174 56" fill="none" xmlns="http://www.w3.org/2000/svg">
<path d="M5.7783 55.5655C4.83584 55.5655 3.88395 55.3487 2.92263 54.9152C1.98016 54.4628 1.25447 53.6994 0.745534 52.625L0.688986 52.3988C0.688986 52.2292 0.745534 52.0784 0.85863 51.9464C0.971726 51.7956 1.14137 51.7202 1.36756 51.7202C1.5749 51.7202 1.73512 51.8239 1.84822 52.0312C2.58334 53.5392 3.89337 54.2932 5.7783 54.2932C6.34378 54.2932 6.90926 54.2178 7.47474 54.067C9.62356 53.313 11.4331 51.3244 12.9033 48.1011C15.5422 42.6725 17.6534 37.0366 19.2367 31.1933C20.9143 25.5197 22.0358 19.7424 22.6013 13.8614C22.6767 13.0697 22.7144 12.2874 22.7144 11.5146C22.7144 11.0622 22.6956 10.4214 22.6579 9.59199C22.6202 8.74378 22.4128 7.73534 22.0358 6.56668C21.6212 5.36032 20.9426 4.28591 20.0001 3.34344C19.0765 2.38213 17.9738 1.90147 16.6921 1.90147H16.6072C15.5328 1.97687 14.2888 2.62717 12.8751 3.85237C9.74608 6.47243 7.40877 9.70509 5.86312 13.5503C5.71233 13.7954 5.51441 13.9179 5.26937 13.9179C4.85469 13.9179 4.64734 13.72 4.64734 13.3242L4.67562 13.1545C5.91967 10.0632 7.67266 7.32065 9.93458 4.92679C12.4415 2.08054 14.7412 0.657418 16.8334 0.657418C17.2858 0.657418 17.757 0.713965 18.2471 0.82706C19.5854 1.29829 20.6787 2.08054 21.5269 3.1738C22.394 4.24821 23.016 5.43572 23.393 6.73632C23.77 8.15002 23.9585 9.65797 23.9585 11.2602C23.9585 12.4665 23.8925 13.6634 23.7606 14.851C22.6484 24.6526 20.1603 34.2186 16.2962 43.549L16.0135 44.2559C15.0522 46.8571 13.8175 49.3075 12.3096 51.6071C11.6122 52.6627 10.7639 53.5486 9.76493 54.2649C8.55858 55.1319 7.2297 55.5655 5.7783 55.5655ZM31.2441 22.8808C32.2808 21.6933 33.4023 20.1476 34.6087 18.2438L34.8914 17.8197C35.5323 16.915 35.8716 16.3495 35.9093 16.1233C35.7962 16.1987 35.6077 16.4154 35.3438 16.7736L35.2307 16.9432C33.572 18.9978 32.2431 20.977 31.2441 22.8808ZM22.7619 41.7678C23.6478 40.8253 24.4489 39.4022 25.1652 37.4984C25.6176 36.2544 25.8438 35.2648 25.8438 34.5296L25.5045 35.3496L23.1012 41.1458L22.7619 41.7678ZM22.1116 43.8883C21.6781 43.8883 21.4613 43.4736 21.4613 42.6443C21.4613 42.0788 21.7158 41.2871 22.2247 40.2693L25.0238 33.6249C24.7788 33.3798 24.6563 33.1725 24.6563 33.0028C24.6563 32.6636 24.8448 32.4751 25.2217 32.4374H25.5328C26.3056 30.6278 27.1255 28.7712 27.9926 26.8674L27.9643 26.8108C27.9643 26.6789 28.068 26.4904 28.2753 26.2454C29.9341 22.7205 31.8756 19.4785 34.0998 16.5191C34.8914 15.407 35.6831 14.7756 36.4748 14.6248C36.8895 14.6248 37.0968 14.9452 37.0968 15.5861C37.0968 16.1516 36.7858 16.915 36.1638 17.8763C34.505 20.7037 32.196 23.7101 29.2366 26.8957C28.3884 28.6675 27.5119 30.6184 26.6072 32.7484C26.8522 32.7672 26.9747 32.9463 26.9747 33.2856V33.5401C27.0124 34.5391 27.6816 35.0386 28.9822 35.0386C29.0199 35.0386 29.3686 35.0386 30.0283 35.0386C30.688 35.0197 31.7813 34.803 33.3081 34.3883C34.8349 33.9547 36.0318 33.5872 36.8989 33.2856C37.257 33.1536 37.4738 33.0877 37.5492 33.0877C37.9073 33.0877 38.0864 33.2762 38.0864 33.6531C38.0864 33.917 37.9545 34.1055 37.6906 34.2186C35.259 35.0668 32.752 35.7077 30.1697 36.1413C29.8304 36.2167 29.5005 36.2544 29.1801 36.2544C28.4073 36.2544 27.6722 36.0564 26.9747 35.6606L26.8899 35.6323C26.8522 35.8585 26.7674 36.2072 26.6354 36.6785C25.8438 39.4305 24.4678 41.7772 22.5074 43.7187C22.3755 43.8318 22.2435 43.8883 22.1116 43.8883ZM41.8616 37.555C40.9757 37.555 40.5328 37.178 40.5328 36.424C40.5328 36.1978 40.5987 35.9433 40.7307 35.6606C41.2962 34.6239 42.0407 33.7474 42.9643 33.0311L43.0774 32.918C44.3592 31.8436 45 31.0708 45 30.5996C45 30.4488 44.9435 30.3357 44.8304 30.2603L44.7173 30.232C44.6419 30.232 44.5194 30.2603 44.3497 30.3168H44.3215C43.6429 30.5619 43.002 30.9577 42.3988 31.5043C41.4752 32.2771 40.6647 32.7201 39.9673 32.8332C39.383 33.4552 38.6573 33.8982 37.7902 34.1621L37.5923 34.1904C37.253 34.1904 37.0833 34.0019 37.0833 33.6249C37.0833 33.361 37.2153 33.1725 37.4792 33.0594C37.9504 32.9086 38.2897 32.7484 38.497 32.5787C38.2331 32.4845 38.1012 32.1358 38.1012 31.5326C38.1012 31.2876 38.2049 30.986 38.4122 30.6278C38.6384 30.2697 39.0248 30.0906 39.5714 30.0906C40.2877 30.0906 40.6459 30.477 40.6459 31.2499L40.6741 31.363C40.9946 31.1745 41.3527 30.92 41.7485 30.5996L41.7768 30.5713C42.9832 29.5911 44.0199 29.101 44.887 29.101C45.4147 29.101 45.8106 29.4026 46.0745 30.0058C46.131 30.2131 46.1593 30.4205 46.1593 30.6278C46.1593 31.608 45.1697 32.8332 43.1905 34.3034C42.9078 34.5673 42.6156 34.8595 42.314 35.1799C41.937 35.5758 41.7485 35.9339 41.7485 36.2544C41.7485 36.3674 41.8051 36.424 41.9182 36.424L42.8512 36.1978C45.7729 35.3684 48.4872 34.3411 50.9941 33.1159L51.2203 33.0877C51.3523 33.0877 51.4842 33.1348 51.6162 33.229C51.7481 33.3233 51.8141 33.4741 51.8141 33.6814C51.8141 33.8699 51.7104 34.0113 51.5031 34.1055C49.0527 35.293 46.6211 36.2638 44.2084 37.0178L43.7277 37.1591C43.1057 37.3665 42.4837 37.4984 41.8616 37.555ZM39.317 31.7305C39.4489 31.5232 39.5149 31.3441 39.5149 31.1933C39.496 31.1556 39.4395 31.1368 39.3453 31.1368C39.2699 31.1368 39.2322 31.1933 39.2322 31.3064C39.2322 31.5891 39.2604 31.7305 39.317 31.7305ZM51.7078 35.2365C52.0471 35.2365 52.4524 35.1422 52.9236 34.9538C53.8661 34.5768 54.752 34.0961 55.5814 33.5118C55.2609 33.3044 54.8368 33.2008 54.309 33.2008C53.819 33.2008 53.131 33.3798 52.245 33.738C51.378 34.0961 50.9444 34.4165 50.9444 34.6993C50.9444 34.7935 50.9821 34.8878 51.0575 34.982C51.1895 35.1517 51.4062 35.2365 51.7078 35.2365ZM51.3403 36.4523C50.3601 36.4523 49.8323 35.9528 49.7569 34.9538C49.7758 34.1998 50.0868 33.6437 50.69 33.2856C52.0283 32.4939 53.3194 32.0981 54.5635 32.0981C55.2232 32.0981 55.8453 32.296 56.4296 32.6918C56.5238 32.7672 56.6369 32.8049 56.7689 32.8049C57.1459 32.8049 57.3343 33.0405 57.3343 33.5118C57.3343 34.5485 58.0412 35.0668 59.4549 35.0668C61.4529 35.0668 64.0447 34.4825 67.2302 33.3139C67.5884 33.1819 67.8146 33.1159 67.9088 33.1159C68.0596 33.1159 68.1821 33.1819 68.2764 33.3139C68.3895 33.4458 68.446 33.5778 68.446 33.7097C68.446 33.9736 68.3141 34.1527 68.0502 34.2469C65.5998 35.114 63.0928 35.7548 60.5293 36.1695C60.19 36.2449 59.8507 36.2826 59.5114 36.2826C58.7575 36.2826 58.0318 36.0847 57.3343 35.6889C56.7689 35.2742 56.4296 34.8407 56.3165 34.3883C55.2986 35.1611 54.1017 35.7643 52.7257 36.1978C52.1414 36.3674 51.6796 36.4523 51.3403 36.4523ZM73.3507 40.1279C73.1245 40.1279 72.9454 40.0525 72.8135 39.9017C72.7569 39.8263 72.7286 39.7415 72.7286 39.6472L72.7569 39.421C73.1528 38.4032 73.5392 37.3759 73.9162 36.3392C74.6513 34.3977 75.4053 32.4656 76.1781 30.543L76.065 30.6278C73.4261 32.1169 70.6552 33.3421 67.7524 34.3034L67.5828 34.3317C67.432 34.3317 67.3095 34.2752 67.2152 34.1621C67.121 34.049 67.0739 33.917 67.0739 33.7662C67.0739 33.7097 67.0739 33.6249 67.0739 33.5118C67.0927 33.3798 67.2152 33.2762 67.4414 33.2008C70.7023 32.1075 73.8031 30.6655 76.7436 28.8748L76.8566 28.8183C79.684 22.5603 83.5293 16.3118 88.3924 10.0727C89.7496 8.09347 91.3989 6.43473 93.3404 5.09643C94.0378 4.60635 94.6316 4.36131 95.1216 4.36131C95.9699 4.36131 96.394 4.92679 96.394 6.05775C96.394 6.41588 96.3657 6.74575 96.3091 7.04733C95.7437 9.5166 94.7352 11.8068 93.2838 13.9179L93.2556 14.0027C89.3914 20.4681 84.2267 25.7176 77.7614 29.7513C77.7237 29.789 77.6766 29.8173 77.62 29.8362C76.621 32.0792 75.754 34.3694 75.0188 36.7067L74.6796 37.6398C74.6984 37.6021 74.7267 37.5738 74.7644 37.555L76.065 36.3957C78.308 34.36 80.6171 32.3997 82.9921 30.5147C84.3304 29.3461 85.697 28.7617 87.0918 28.7617C88.2605 28.7617 89.4386 29.167 90.6261 29.9775C91.1539 30.4111 91.6534 30.8729 92.1246 31.363C92.7843 32.0415 93.5006 32.6636 94.2734 33.229C97.4024 35.3402 101.135 36.3957 105.47 36.3957C109.409 36.3957 114.197 35.359 119.833 33.2856L120.031 33.2573C120.163 33.2573 120.276 33.3139 120.37 33.427C120.465 33.5212 120.512 33.6437 120.512 33.7945C120.512 33.8511 120.502 33.9453 120.483 34.0773C120.483 34.1904 120.37 34.294 120.144 34.3883C116.318 35.8208 112.378 36.8104 108.326 37.357C107.251 37.5078 106.196 37.5832 105.159 37.5832C100.07 37.5832 95.5175 35.8491 91.5026 32.3808C90.6355 31.5138 89.9381 30.8823 89.4103 30.4865C88.8071 30.0341 88.1097 29.7985 87.318 29.7796C85.9232 29.8362 84.387 30.6561 82.7094 32.2394L73.7182 39.9865C73.6051 40.0808 73.4826 40.1279 73.3507 40.1279ZM78.5248 27.8853L78.6096 27.8287C82.3041 25.3217 85.5745 22.3436 88.4207 18.8941C90.2114 16.7265 91.6534 14.6153 92.7466 12.5608C94.3677 10.035 95.197 7.92383 95.2347 6.22739C95.2347 5.83156 95.1405 5.63364 94.952 5.63364C94.8577 5.63364 94.7258 5.67134 94.5562 5.74673C93.8587 6.06717 93.199 6.51013 92.577 7.07561C90.8617 8.6778 88.5903 11.4958 85.763 15.5295C83.2748 19.0921 80.8621 23.2106 78.5248 27.8853ZM126.65 36.0564H126.396C125.472 36.0564 124.539 35.8868 123.597 35.5475C122.56 35.114 121.929 34.4731 121.702 33.6249C121.401 33.8511 120.977 34.0678 120.43 34.2752L120.261 34.3034C119.921 34.3034 119.752 34.115 119.752 33.738C119.752 33.4741 119.874 33.2856 120.119 33.1725C120.741 32.9651 121.25 32.6259 121.646 32.1546C121.778 31.985 121.948 31.9002 122.155 31.9002C122.513 31.9002 122.692 32.0792 122.692 32.4374V32.5787C122.692 33.3516 122.975 33.917 123.54 34.2752C124.125 34.6333 124.718 34.8312 125.322 34.8689C125.925 34.9066 126.396 34.9255 126.735 34.9255C127.188 34.9255 127.593 34.9066 127.951 34.8689C130.364 34.6616 132.701 34.0867 134.963 33.1442L135.133 33.1159C135.472 33.1159 135.642 33.3044 135.642 33.6814C135.642 33.9265 135.528 34.115 135.302 34.2469C132.531 35.3967 129.647 35.9999 126.65 36.0564ZM123.427 29.2141C123.276 29.2141 123.126 29.167 122.975 29.0728C122.598 28.9597 122.409 28.6769 122.409 28.2245C122.409 27.9795 122.494 27.791 122.664 27.6591C122.852 27.5271 123.022 27.4611 123.173 27.4611C123.361 27.4611 123.54 27.4894 123.71 27.546C124.049 27.6968 124.219 27.9701 124.219 28.3659C124.219 28.4979 124.191 28.6392 124.134 28.79C123.983 29.0728 123.748 29.2141 123.427 29.2141ZM167.175 35.6323C164.914 35.6323 163.057 34.6899 161.605 32.8049C160.644 31.5043 159.702 30.854 158.778 30.854C158.081 30.854 157.242 31.3253 156.262 32.2677C155.715 32.8332 155.121 33.2667 154.48 33.5683C153.953 33.5683 153.642 33.229 153.547 32.5505C153.321 31.6268 152.727 31.1179 151.766 31.0237C150.956 31.0237 150.041 31.4855 149.024 32.4091C147.459 33.9736 146.272 34.7558 145.461 34.7558C144.726 34.7558 144.358 34.0207 144.358 32.5505C144.358 32.0604 144.415 31.5797 144.528 31.1085C144.641 30.3357 144.698 29.7702 144.698 29.4121C144.698 29.2613 144.622 29.1859 144.471 29.1859L142.125 30.5996C139.957 32.0133 137.714 33.2008 135.395 34.1621L135.226 34.1904C134.887 34.1904 134.717 34.0113 134.717 33.6531C134.717 33.4081 134.83 33.2196 135.056 33.0877C137.337 32.1452 139.514 30.9765 141.587 29.5817C141.719 29.5063 141.87 29.4026 142.04 29.2707C143.246 28.4225 144.179 27.9984 144.839 27.9984C145.48 28.0172 145.8 28.5356 145.8 29.5534C145.8 30.1001 145.753 30.6467 145.659 31.1933C145.584 31.5891 145.527 32.0321 145.489 32.5222C145.489 33.0123 145.527 33.3327 145.602 33.4835L145.772 33.5118L145.942 33.4552C146.375 33.229 146.903 32.8238 147.525 32.2394C148.241 31.5797 148.873 31.0425 149.419 30.6278C150.136 30.1377 150.88 29.8927 151.653 29.8927C152.369 29.8927 153.01 30.1283 153.576 30.5996C154.103 30.9954 154.471 31.5326 154.678 32.2112C154.886 32.0415 155.159 31.7871 155.498 31.4478C156.497 30.4488 157.534 29.8833 158.608 29.7513C160.079 29.7513 161.37 30.5524 162.482 32.1546C163.651 33.6626 165.196 34.4448 167.119 34.5014C169.136 34.4448 171.077 33.983 172.943 33.1159L173.141 33.0877C173.499 33.0877 173.707 33.2667 173.763 33.6249C173.763 33.8511 173.66 34.0207 173.452 34.1338C171.737 34.8878 169.946 35.3684 168.08 35.5758C167.76 35.6135 167.458 35.6323 167.175 35.6323Z" fill="white"/>
</svg>
